<svg aria-hidden="true" style="position: absolute; width: 0; height: 0; overflow: hidden;" version="1.1" xmlns="http://www.w3.org/2000/svg" xmlns:xlink="http://www.w3.org/1999/xlink">
<defs>
<symbol id="icon-arrow" viewBox="0 0 28 32">
<path d="M24.137 3.149c-0.133-0.921-0.917-1.62-1.864-1.62-0.093 0-0.184 0.007-0.273 0.020l0.010-0.001-16.776 2.359c-0.899 0.152-1.576 0.926-1.576 1.857 0 1.040 0.843 1.882 1.882 1.882 0.076 0 0.152-0.005 0.226-0.013l-0.009 0.001 14.914-2.095 2.095 14.912c0.116 0.939 0.908 1.659 1.869 1.659 1.040 0 1.882-0.843 1.882-1.882 0-0.107-0.009-0.211-0.026-0.313l0.002 0.011-2.357-16.776zM3.386 31.605l20.388-27.061-3.004-2.266-20.392 27.061 3.010 2.266z"></path>
</symbol>
<symbol id="icon-check" viewBox="0 0 32 32">
<path d="M8 13.333l-2.667 2.667 8 8 13.333-13.333-2.667-2.667-10.667 10.667-5.333-5.333z"></path>
</symbol>
<symbol id="icon-chevron-down" viewBox="0 0 32 32">
<path stroke-linejoin="round" stroke-linecap="round" stroke-miterlimit="4" stroke-width="3.2" d="M8 20l8-8 8 8"></path>
</symbol>
<symbol id="icon-clock" viewBox="0 0 32 32">
<path stroke-linejoin="round" stroke-linecap="round" stroke-miterlimit="4" stroke-width="2.4" d="M16 29.333c7.364 0 13.333-5.969 13.333-13.333s-5.969-13.333-13.333-13.333v0c-7.364 0-13.333 5.969-13.333 13.333s5.969 13.333 13.333 13.333v0z"></path>
<path stroke-linejoin="round" stroke-linecap="round" stroke-miterlimit="4" stroke-width="2.4" d="M16 8v8l5.333 2.667"></path>
</symbol>
<symbol id="icon-eye-off" viewBox="0 0 32 32">
<path stroke-linejoin="round" stroke-linecap="round" stroke-miterlimit="4" stroke-width="3.2" d="M23.92 23.92c-2.175 1.672-4.923 2.696-7.908 2.747l-0.012 0c-9.331 0-14.664-10.667-14.664-10.667 1.713-3.152 3.978-5.791 6.689-7.877l0.058-0.043M13.203 5.653c0.833-0.203 1.788-0.32 2.771-0.32 0.010 0 0.020 0 0.030 0h-0.002c9.333 0 14.666 10.667 14.666 10.667-0.871 1.615-1.826 3.008-2.91 4.289l0.030-0.036M18.829 18.827c-0.732 0.782-1.77 1.269-2.922 1.269-2.209 0-4-1.791-4-4 0-1.152 0.487-2.191 1.267-2.921l0.002-0.002M1.334 1.333l29.333 29.334"></path>
</symbol>
<symbol id="icon-eye" viewBox="0 0 32 32">
<path stroke-linejoin="round" stroke-linecap="round" stroke-miterlimit="4" stroke-width="3.2" d="M1.334 16s5.333-10.667 14.667-10.667c9.333 0 14.666 10.667 14.666 10.667s-5.333 10.667-14.666 10.667c-9.334 0-14.667-10.667-14.667-10.667z"></path>
<path stroke-linejoin="round" stroke-linecap="round" stroke-miterlimit="4" stroke-width="3.2" d="M16 20c2.209 0 4-1.791 4-4s-1.791-4-4-4v0c-2.209 0-4 1.791-4 4s1.791 4 4 4v0z"></path>
</symbol>
<symbol id="icon-favorite" viewBox="0 0 32 32">
<path stroke-linejoin="round" stroke-linecap="round" stroke-miterlimit="4" stroke-width="2.4615" d="M27.787 6.146c-1.327-1.328-3.161-2.149-5.187-2.149s-3.86 0.821-5.187 2.149l-1.413 1.413-1.413-1.413c-1.331-1.35-3.18-2.186-5.224-2.186-4.051 0-7.335 3.284-7.335 7.335 0 2.044 0.836 3.892 2.184 5.223l0.001 0.001 11.787 11.787 11.787-11.787c1.327-1.327 2.148-3.161 2.148-5.186s-0.821-3.859-2.148-5.186v0z"></path>
</symbol>
<symbol id="icon-isfavorite" viewBox="0 0 32 32">
<path stroke-linejoin="round" stroke-linecap="round" stroke-miterlimit="4" stroke-width="2.4615" d="M27.787 6.146c-1.327-1.328-3.161-2.149-5.187-2.149s-3.86 0.821-5.187 2.149l-1.413 1.414-1.413-1.414c-1.331-1.35-3.18-2.186-5.224-2.186-4.051 0-7.335 3.284-7.335 7.335 0 2.044 0.836 3.892 2.184 5.223l0.001 0.001 11.787 11.787 11.787-11.787c1.327-1.327 2.148-3.161 2.148-5.186s-0.821-3.859-2.148-5.186v0z"></path>
</symbol>
<symbol id="icon-logo" viewBox="0 0 249 32">
<path fill="#fc832c" style="fill: var(--color1, #fc832c)" d="M1.379 26.389v-17.143h3.409v2.095h0.154c0.152-0.335 0.371-0.677 0.658-1.023 0.291-0.351 0.671-0.643 1.136-0.877 0.471-0.238 1.055-0.357 1.753-0.357 0.009-0 0.019-0 0.030-0 0.922 0 1.781 0.266 2.506 0.726l-0.019-0.011c0.768 0.471 1.383 1.182 1.842 2.135 0.459 0.946 0.69 2.135 0.69 3.563 0 1.39-0.225 2.565-0.674 3.522-0.443 0.952-1.049 1.675-1.817 2.167-0.71 0.459-1.578 0.732-2.509 0.732-0.020 0-0.040-0-0.060-0l0.003 0c-0.671 0-1.242-0.112-1.713-0.334-0.448-0.208-0.828-0.489-1.142-0.833l-0.002-0.003c-0.267-0.297-0.495-0.636-0.671-1.005l-0.011-0.026h-0.105v6.672h-3.458zM4.765 15.481c0 0.741 0.103 1.387 0.309 1.939s0.503 0.983 0.893 1.291c0.39 0.302 0.863 0.454 1.421 0.454 0.562 0 1.040-0.154 1.429-0.463 0.39-0.314 0.685-0.746 0.885-1.298 0.206-0.558 0.309-1.2 0.309-1.923 0-0.72-0.099-1.353-0.301-1.899-0.2-0.547-0.495-0.975-0.885-1.283-0.389-0.309-0.869-0.462-1.437-0.462-0.562 0-1.039 0.149-1.429 0.446-0.384 0.297-0.679 0.72-0.885 1.266s-0.309 1.191-0.309 1.931zM25.76 12.802l-3.166 0.194c-0.057-0.282-0.179-0.528-0.351-0.733l0.002 0.003c-0.188-0.227-0.424-0.406-0.694-0.523l-0.012-0.005c-0.284-0.128-0.617-0.203-0.966-0.203-0.023 0-0.045 0-0.068 0.001l0.003-0c-0.536 0-0.987 0.114-1.355 0.341-0.368 0.222-0.552 0.52-0.552 0.893 0 0.297 0.119 0.549 0.358 0.754 0.238 0.206 0.647 0.371 1.225 0.496l2.256 0.455c1.213 0.249 2.117 0.649 2.712 1.2 0.594 0.553 0.891 1.278 0.891 2.176 0 0.817-0.24 1.535-0.721 2.151-0.477 0.617-1.131 1.099-1.965 1.446-0.827 0.341-1.783 0.511-2.865 0.511-1.65 0-2.966-0.343-3.945-1.031-0.974-0.693-1.544-1.634-1.712-2.825l3.401-0.178c0.103 0.503 0.351 0.888 0.746 1.153 0.395 0.259 0.901 0.389 1.518 0.389 0.606 0 1.094-0.115 1.462-0.349 0.373-0.238 0.562-0.544 0.568-0.917-0.001-0.317-0.157-0.597-0.395-0.77l-0.003-0.002c-0.261-0.206-0.661-0.362-1.202-0.471l-2.159-0.43c-1.217-0.243-2.123-0.666-2.719-1.266-0.59-0.601-0.885-1.367-0.885-2.297 0-0.801 0.217-1.491 0.649-2.070 0.439-0.579 1.053-1.026 1.842-1.339 0.795-0.314 1.726-0.471 2.792-0.471 1.575 0 2.815 0.333 3.718 0.998 0.91 0.666 1.44 1.573 1.591 2.72zM29.899 26.39c-0.438 0-0.849-0.034-1.234-0.105-0.354-0.055-0.67-0.143-0.971-0.262l0.030 0.011 0.778-2.583c0.406 0.126 0.771 0.193 1.097 0.203 0.329 0.011 0.614-0.064 0.851-0.226 0.243-0.162 0.441-0.439 0.592-0.829l0.203-0.528-4.472-12.824h3.635l2.582 9.155h0.13l2.606-9.155h3.661l-4.846 13.815c-0.229 0.672-0.552 1.254-0.96 1.765l0.009-0.012c-0.394 0.503-0.895 0.89-1.501 1.161-0.606 0.275-1.337 0.414-2.192 0.414zM45.931 21.958c-1.277 0-2.375-0.271-3.295-0.811-0.908-0.545-1.629-1.319-2.096-2.242l-0.014-0.031c-0.487-0.968-0.73-2.083-0.73-3.344 0-1.277 0.246-2.397 0.738-3.36 0.485-0.952 1.209-1.723 2.094-2.251l0.025-0.014c0.914-0.546 2.002-0.819 3.263-0.819 1.088 0 2.040 0.198 2.857 0.592 0.798 0.38 1.454 0.947 1.929 1.647l0.011 0.017c0.477 0.714 0.739 1.554 0.789 2.517h-3.264c-0.091-0.622-0.335-1.122-0.73-1.502-0.389-0.384-0.901-0.576-1.534-0.576-0.536 0-1.005 0.146-1.405 0.438-0.395 0.287-0.703 0.706-0.926 1.258-0.222 0.552-0.331 1.221-0.331 2.006 0 0.795 0.107 1.471 0.323 2.029 0.222 0.558 0.534 0.983 0.934 1.274 0.4 0.293 0.869 0.439 1.405 0.439 0.394 0 0.75-0.081 1.063-0.243 0.32-0.162 0.583-0.398 0.789-0.706 0.21-0.314 0.349-0.69 0.413-1.129h3.263c-0.054 0.953-0.313 1.792-0.778 2.517-0.472 0.725-1.118 1.301-1.881 1.676l-0.028 0.012c-0.811 0.406-1.771 0.609-2.88 0.609zM56.714 14.506v7.208h-3.457v-16.623h3.36v6.354h0.146c0.269-0.72 0.743-1.312 1.351-1.72l0.013-0.008c0.629-0.423 1.415-0.633 2.362-0.633 0.865 0 1.621 0.19 2.264 0.568 0.653 0.381 1.17 0.932 1.5 1.593l0.010 0.022c0.363 0.698 0.542 1.535 0.536 2.509v7.938h-3.458v-7.321c0.006-0.769-0.189-1.367-0.583-1.794-0.391-0.427-0.937-0.64-1.641-0.64-0.47 0-0.887 0.099-1.249 0.299-0.358 0.2-0.639 0.491-0.845 0.877-0.2 0.378-0.303 0.835-0.309 1.371zM72.696 21.958c-1.261 0-2.351-0.267-3.271-0.803-0.909-0.541-1.632-1.308-2.104-2.226l-0.014-0.031c-0.497-0.968-0.746-2.091-0.746-3.368 0-1.288 0.249-2.414 0.746-3.376 0.484-0.951 1.208-1.719 2.094-2.243l0.025-0.014c0.92-0.541 2.010-0.811 3.271-0.811s2.349 0.271 3.263 0.811c0.914 0.536 1.641 1.304 2.112 2.225l0.014 0.031c0.498 0.963 0.747 2.089 0.747 3.377 0 1.278-0.249 2.4-0.746 3.368-0.488 0.95-1.214 1.718-2.1 2.243l-0.025 0.014c-0.915 0.536-2.003 0.803-3.264 0.803zM72.712 19.279c0.574 0 1.053-0.162 1.437-0.487 0.385-0.33 0.674-0.779 0.869-1.347 0.2-0.568 0.301-1.215 0.301-1.939 0-0.726-0.101-1.371-0.301-1.941-0.194-0.568-0.485-1.017-0.869-1.347-0.384-0.329-0.863-0.495-1.437-0.495-0.578 0-1.065 0.166-1.461 0.495-0.39 0.331-0.686 0.779-0.885 1.349-0.194 0.568-0.293 1.214-0.293 1.939 0 0.725 0.097 1.371 0.293 1.939 0.2 0.568 0.495 1.017 0.885 1.349 0.395 0.323 0.882 0.486 1.461 0.486zM84.081 5.091v16.623h-3.457v-16.623h3.457zM92.027 21.958c-1.261 0-2.351-0.267-3.271-0.803-0.909-0.541-1.632-1.308-2.104-2.226l-0.014-0.031c-0.498-0.968-0.747-2.091-0.747-3.368 0-1.288 0.249-2.414 0.747-3.376 0.484-0.951 1.208-1.719 2.094-2.243l0.025-0.014c0.92-0.541 2.010-0.811 3.271-0.811s2.349 0.271 3.263 0.811c0.914 0.536 1.641 1.304 2.112 2.225l0.014 0.031c0.498 0.963 0.747 2.089 0.747 3.377 0 1.278-0.249 2.4-0.746 3.368-0.488 0.95-1.214 1.718-2.101 2.243l-0.025 0.014c-0.914 0.536-2.002 0.803-3.263 0.803zM92.043 19.279c0.574 0 1.053-0.162 1.437-0.487 0.384-0.33 0.674-0.779 0.869-1.347 0.2-0.568 0.301-1.215 0.301-1.939 0-0.726-0.101-1.371-0.301-1.941-0.194-0.568-0.485-1.017-0.869-1.347-0.384-0.329-0.863-0.495-1.437-0.495-0.579 0-1.066 0.166-1.461 0.495-0.39 0.331-0.686 0.779-0.886 1.349-0.194 0.568-0.291 1.214-0.291 1.939 0 0.725 0.097 1.371 0.291 1.939 0.201 0.568 0.496 1.017 0.886 1.349 0.394 0.323 0.881 0.486 1.461 0.486zM105.571 26.65c-1.12 0-2.080-0.155-2.881-0.464-0.795-0.303-1.429-0.717-1.899-1.241-0.442-0.481-0.764-1.080-0.912-1.745l-0.005-0.025 3.198-0.43c0.097 0.249 0.251 0.481 0.463 0.697 0.21 0.217 0.489 0.391 0.835 0.52 0.352 0.136 0.779 0.203 1.282 0.203 0.753 0 1.371-0.184 1.859-0.552 0.491-0.362 0.738-0.971 0.738-1.826v-2.281h-0.146c-0.151 0.346-0.378 0.674-0.681 0.983-0.304 0.309-0.694 0.56-1.169 0.754-0.477 0.194-1.045 0.293-1.705 0.293-0.936 0-1.789-0.217-2.557-0.649-0.762-0.439-1.371-1.107-1.826-2.006-0.449-0.903-0.674-2.046-0.674-3.425 0-1.413 0.231-2.592 0.69-3.538 0.461-0.947 1.072-1.657 1.834-2.127 0.708-0.443 1.568-0.706 2.49-0.706 0.013 0 0.025 0 0.038 0h-0.002c0.697 0 1.281 0.119 1.752 0.357 0.471 0.233 0.85 0.526 1.137 0.877 0.291 0.346 0.517 0.688 0.674 1.023h0.129v-2.094h3.433v12.59c0 1.061-0.259 1.947-0.779 2.663-0.519 0.713-1.239 1.249-2.159 1.606-0.914 0.363-1.967 0.544-3.158 0.544zM105.645 18.938c0.558 0 1.029-0.137 1.413-0.414 0.389-0.281 0.687-0.682 0.893-1.201 0.211-0.526 0.317-1.153 0.317-1.883 0-0.731-0.103-1.363-0.309-1.899-0.206-0.542-0.503-0.96-0.891-1.257-0.391-0.298-0.864-0.447-1.422-0.447-0.568 0-1.047 0.154-1.437 0.462-0.389 0.304-0.685 0.726-0.885 1.266-0.2 0.542-0.301 1.166-0.301 1.874 0 0.72 0.101 1.343 0.301 1.867 0.206 0.52 0.501 0.923 0.885 1.21 0.39 0.281 0.869 0.422 1.437 0.422zM113.962 21.714v-12.469h3.457v12.469h-3.457zM115.699 7.64c-0.514 0-0.955-0.171-1.323-0.512-0.335-0.304-0.544-0.742-0.544-1.228 0-0.005 0-0.009 0-0.014v0.001c0-0.477 0.182-0.886 0.544-1.226 0.334-0.321 0.789-0.519 1.29-0.519 0.012 0 0.023 0 0.035 0l-0.002-0c0.513 0 0.952 0.173 1.314 0.519 0.368 0.341 0.552 0.75 0.552 1.226 0 0.481-0.184 0.895-0.552 1.241-0.332 0.317-0.782 0.512-1.278 0.512-0.013 0-0.025-0-0.038-0l0.002 0zM130.106 12.802l-3.166 0.194c-0.057-0.282-0.18-0.529-0.352-0.733l0.002 0.002c-0.187-0.227-0.424-0.406-0.693-0.523l-0.012-0.005c-0.284-0.128-0.617-0.203-0.966-0.203-0.023 0-0.045 0-0.068 0.001l0.003-0c-0.536 0-0.989 0.114-1.357 0.341-0.368 0.222-0.552 0.52-0.552 0.893 0 0.297 0.12 0.549 0.358 0.754s0.647 0.371 1.225 0.496l2.257 0.455c1.211 0.249 2.115 0.649 2.711 1.2 0.595 0.553 0.893 1.278 0.893 2.176 0 0.817-0.24 1.535-0.722 2.151-0.477 0.617-1.13 1.099-1.965 1.446-0.827 0.341-1.783 0.511-2.865 0.511-1.65 0-2.965-0.343-3.944-1.031-0.975-0.693-1.545-1.634-1.713-2.825l3.401-0.178c0.103 0.503 0.352 0.888 0.746 1.153 0.395 0.259 0.902 0.389 1.518 0.389 0.607 0 1.094-0.115 1.462-0.349 0.374-0.238 0.562-0.544 0.568-0.917-0.001-0.317-0.157-0.597-0.395-0.77l-0.003-0.002c-0.259-0.206-0.661-0.362-1.201-0.471l-2.159-0.43c-1.218-0.243-2.125-0.666-2.72-1.266-0.59-0.601-0.885-1.367-0.885-2.297 0-0.801 0.217-1.491 0.649-2.070 0.439-0.579 1.053-1.026 1.843-1.339 0.795-0.314 1.726-0.471 2.792-0.471 1.575 0 2.814 0.333 3.718 0.998 0.909 0.666 1.439 1.573 1.591 2.72zM138.742 9.247v2.598h-7.509v-2.599h7.509zM132.938 6.259h3.457v11.623c0 0.32 0.049 0.569 0.146 0.747 0.090 0.165 0.23 0.292 0.4 0.364l0.005 0.002c0.179 0.070 0.385 0.105 0.617 0.105 0.162 0 0.325-0.014 0.487-0.040 0.162-0.033 0.287-0.057 0.374-0.073l0.544 2.573c-0.171 0.055-0.416 0.119-0.665 0.174l-0.066 0.012c-0.341 0.079-0.734 0.129-1.138 0.138l-0.007 0c-0.833 0.033-1.563-0.079-2.191-0.333-0.607-0.241-1.105-0.652-1.447-1.174l-0.007-0.012c-0.346-0.536-0.517-1.211-0.511-2.030v-12.077zM150.754 12.802l-3.166 0.194c-0.057-0.282-0.179-0.529-0.351-0.733l0.002 0.003c-0.188-0.226-0.424-0.406-0.694-0.523l-0.012-0.005c-0.284-0.128-0.617-0.203-0.966-0.203-0.023 0-0.045 0-0.068 0.001l0.003-0c-0.536 0-0.987 0.114-1.355 0.341-0.368 0.222-0.552 0.52-0.552 0.893 0 0.297 0.119 0.549 0.357 0.754s0.647 0.371 1.226 0.496l2.256 0.455c1.213 0.249 2.115 0.649 2.711 1.2 0.595 0.553 0.893 1.278 0.893 2.176 0 0.817-0.24 1.535-0.722 2.151-0.475 0.617-1.13 1.099-1.963 1.446-0.829 0.341-1.784 0.511-2.866 0.511-1.65 0-2.965-0.343-3.944-1.031-0.974-0.693-1.545-1.634-1.713-2.825l3.401-0.178c0.103 0.503 0.352 0.888 0.746 1.153 0.395 0.259 0.902 0.389 1.519 0.389 0.606 0 1.093-0.115 1.461-0.349 0.374-0.238 0.562-0.544 0.568-0.917-0.001-0.317-0.157-0.597-0.395-0.77l-0.003-0.002c-0.259-0.206-0.659-0.362-1.201-0.471l-2.159-0.43c-1.218-0.243-2.125-0.666-2.719-1.266-0.591-0.601-0.886-1.367-0.886-2.297 0-0.801 0.217-1.491 0.65-2.070 0.438-0.579 1.053-1.026 1.842-1.339 0.795-0.314 1.726-0.471 2.792-0.471 1.575 0 2.814 0.333 3.718 0.998 0.909 0.666 1.439 1.573 1.591 2.72zM154.609 21.869c-0.443 0-0.825-0.157-1.144-0.471-0.296-0.286-0.479-0.685-0.479-1.128 0-0.008 0-0.017 0-0.025v0.001c0-0.445 0.159-0.823 0.479-1.137 0.319-0.32 0.701-0.479 1.144-0.479s0.825 0.16 1.144 0.48c0.32 0.313 0.479 0.691 0.479 1.136 0 0.297-0.075 0.57-0.226 0.819-0.146 0.242-0.343 0.438-0.578 0.58l-0.008 0.004c-0.243 0.146-0.514 0.219-0.811 0.219z"></path>
<path fill="#191a15" style="fill: var(--color2, #191a15)" d="M168.758 12.542l-2.678 0.293c-0.086-0.293-0.223-0.548-0.401-0.767l0.003 0.004c-0.197-0.246-0.448-0.442-0.735-0.571l-0.012-0.005c-0.313-0.146-0.697-0.219-1.152-0.219-0.611 0-1.126 0.133-1.543 0.398-0.41 0.265-0.614 0.609-0.608 1.031-0.001 0.015-0.001 0.032-0.001 0.049 0 0.337 0.155 0.638 0.397 0.835l0.002 0.002c0.275 0.226 0.73 0.414 1.363 0.56l2.127 0.454c1.179 0.255 2.056 0.658 2.63 1.21 0.578 0.552 0.871 1.274 0.877 2.167 0 0.008 0 0.018 0 0.027 0 0.774-0.26 1.488-0.696 2.058l0.006-0.008c-0.449 0.595-1.074 1.061-1.874 1.397-0.801 0.335-1.721 0.503-2.76 0.503-1.526 0-2.754-0.32-3.686-0.958-0.93-0.643-1.485-1.539-1.664-2.686l2.865-0.277c0.13 0.562 0.407 0.987 0.829 1.274 0.422 0.286 0.971 0.43 1.648 0.43 0.697 0 1.258-0.143 1.68-0.43 0.427-0.287 0.641-0.641 0.641-1.063 0-0.006 0-0.014 0-0.022 0-0.348-0.161-0.659-0.412-0.862l-0.002-0.002c-0.271-0.232-0.693-0.411-1.266-0.536l-2.127-0.446c-1.195-0.249-2.081-0.669-2.654-1.258-0.574-0.594-0.858-1.347-0.853-2.257-0.006-0.768 0.202-1.433 0.625-1.997 0.427-0.568 1.019-1.006 1.777-1.314 0.763-0.314 1.642-0.471 2.638-0.471 1.462 0 2.611 0.311 3.45 0.934 0.843 0.622 1.366 1.463 1.566 2.523zM176.511 21.959c-1.249 0-2.329-0.261-3.238-0.781-0.9-0.527-1.614-1.285-2.073-2.194l-0.014-0.030c-0.487-0.963-0.73-2.097-0.73-3.401 0-1.282 0.243-2.408 0.73-3.376 0.493-0.974 1.181-1.731 2.062-2.273 0.882-0.546 1.919-0.819 3.109-0.819 0.011-0 0.025-0 0.039-0 0.767 0 1.501 0.137 2.181 0.388l-0.044-0.014c0.71 0.255 1.317 0.642 1.819 1.137l-0.001-0.001c0.53 0.514 0.946 1.169 1.25 1.965 0.303 0.789 0.454 1.731 0.454 2.824v0.902h-10.218v-1.981h7.402c0-0.008 0-0.018 0-0.027 0-0.539-0.135-1.047-0.374-1.491l0.008 0.017c-0.234-0.438-0.574-0.794-0.986-1.040l-0.012-0.007c-0.423-0.255-0.915-0.382-1.478-0.382-0.601 0-1.128 0.145-1.583 0.438-0.448 0.282-0.808 0.666-1.055 1.12l-0.008 0.016c-0.24 0.444-0.382 0.972-0.382 1.534 0 0 0 0.001 0 0.001v-0 1.729c0 0.725 0.133 1.347 0.398 1.866 0.265 0.514 0.635 0.91 1.112 1.185 0.477 0.271 1.033 0.406 1.672 0.406 0.427 0 0.815-0.059 1.161-0.178 0.346-0.125 0.646-0.305 0.901-0.544 0.253-0.24 0.45-0.536 0.571-0.869l0.005-0.016 2.744 0.309c-0.175 0.739-0.521 1.38-0.994 1.903l0.003-0.004c-0.481 0.535-1.098 0.952-1.85 1.249-0.752 0.293-1.613 0.439-2.582 0.439zM184.083 21.714v-12.469h2.849v2.080h0.13c0.227-0.72 0.617-1.275 1.169-1.665 0.517-0.37 1.162-0.592 1.86-0.592 0.017 0 0.034 0 0.050 0l-0.003-0c0.162 0 0.343 0.008 0.544 0.024 0.205 0.011 0.376 0.030 0.511 0.057v2.703c-0.172-0.053-0.373-0.093-0.581-0.113l-0.013-0.001c-0.231-0.036-0.498-0.056-0.769-0.057h-0.001c-0.013-0-0.029-0-0.045-0-0.512 0-0.994 0.13-1.415 0.358l0.016-0.008c-0.418 0.224-0.756 0.547-0.992 0.938l-0.006 0.011c-0.243 0.406-0.366 0.874-0.366 1.405v7.329h-2.938zM204.205 9.246l-4.44 12.469h-3.246l-4.44-12.469h3.133l2.865 9.263h0.13l2.873-9.262h3.125zM205.782 21.714v-12.469h2.938v12.469h-2.938zM207.258 7.478c-0.009 0-0.019 0-0.029 0-0.454 0-0.866-0.176-1.173-0.464l0.001 0.001c-0.309-0.274-0.503-0.672-0.503-1.116 0-0.004 0-0.009 0-0.013v0.001c0-0.445 0.167-0.821 0.503-1.129 0.304-0.292 0.718-0.471 1.174-0.471 0.010 0 0.019 0 0.029 0l-0.001-0c0.471 0 0.871 0.158 1.201 0.471 0.336 0.309 0.504 0.686 0.504 1.129 0 0.438-0.168 0.814-0.504 1.128-0.33 0.309-0.73 0.463-1.201 0.463zM216.722 21.958c-1.245 0-2.313-0.273-3.207-0.819-0.884-0.55-1.585-1.319-2.038-2.233l-0.014-0.032c-0.477-0.968-0.714-2.083-0.714-3.344 0-1.266 0.243-2.384 0.73-3.352 0.487-0.974 1.174-1.731 2.062-2.273 0.893-0.546 1.947-0.819 3.166-0.819 1.011 0 1.907 0.186 2.687 0.56 0.768 0.355 1.401 0.889 1.864 1.551l0.010 0.015c0.465 0.672 0.73 1.456 0.795 2.354h-2.808c-0.107-0.597-0.397-1.113-0.81-1.5l-0.001-0.001c-0.423-0.406-0.989-0.608-1.697-0.608-0.6 0-1.128 0.162-1.583 0.487-0.454 0.32-0.809 0.779-1.063 1.379-0.249 0.601-0.374 1.321-0.374 2.16 0 0.849 0.125 1.579 0.374 2.191 0.249 0.606 0.598 1.074 1.047 1.405 0.455 0.325 0.987 0.487 1.599 0.487 0.433 0 0.821-0.081 1.161-0.243 0.346-0.168 0.635-0.409 0.869-0.722 0.232-0.314 0.392-0.696 0.479-1.145h2.808c-0.070 0.882-0.33 1.664-0.779 2.346-0.461 0.681-1.080 1.223-1.807 1.579l-0.027 0.012c-0.774 0.378-1.682 0.568-2.727 0.568zM229.538 21.958c-1.25 0-2.329-0.259-3.239-0.779-0.9-0.527-1.613-1.285-2.072-2.194l-0.014-0.030c-0.487-0.963-0.73-2.097-0.73-3.401 0-1.282 0.243-2.408 0.73-3.376 0.493-0.974 1.179-1.731 2.062-2.273 0.882-0.546 1.918-0.819 3.109-0.819 0.768 0 1.494 0.125 2.175 0.374 0.71 0.254 1.318 0.642 1.819 1.137l-0.001-0.001c0.53 0.514 0.947 1.169 1.25 1.965 0.303 0.789 0.455 1.731 0.455 2.824v0.902h-10.219v-1.981h7.402c0-0.009 0-0.019 0-0.029 0-0.539-0.135-1.046-0.373-1.489l0.008 0.017c-0.235-0.438-0.575-0.793-0.987-1.040l-0.012-0.007c-0.422-0.255-0.914-0.382-1.478-0.382-0.6 0-1.128 0.145-1.582 0.438-0.448 0.283-0.809 0.666-1.056 1.12l-0.008 0.016c-0.24 0.444-0.382 0.972-0.382 1.534 0 0 0 0.001 0 0.001v-0 1.729c0 0.725 0.133 1.347 0.398 1.866 0.265 0.514 0.637 0.91 1.112 1.185 0.477 0.271 1.034 0.406 1.672 0.406 0.427 0 0.815-0.059 1.161-0.178 0.346-0.125 0.647-0.305 0.901-0.544 0.255-0.238 0.447-0.533 0.577-0.885l2.743 0.309c-0.174 0.739-0.52 1.38-0.993 1.903l0.003-0.004c-0.482 0.535-1.098 0.952-1.851 1.249-0.752 0.293-1.613 0.439-2.581 0.439zM246.965 12.542l-2.679 0.293c-0.085-0.294-0.222-0.548-0.401-0.767l0.003 0.004c-0.197-0.246-0.447-0.442-0.734-0.571l-0.012-0.005c-0.314-0.146-0.698-0.219-1.153-0.219-0.611 0-1.126 0.133-1.542 0.398-0.411 0.265-0.615 0.609-0.609 1.031-0.001 0.015-0.001 0.032-0.001 0.049 0 0.337 0.155 0.638 0.397 0.835l0.002 0.002c0.277 0.226 0.73 0.414 1.363 0.56l2.127 0.454c1.179 0.255 2.056 0.658 2.63 1.21 0.579 0.552 0.872 1.274 0.877 2.167 0 0.009 0 0.019 0 0.029 0 0.774-0.259 1.487-0.695 2.057l0.006-0.008c-0.449 0.595-1.074 1.061-1.875 1.397-0.801 0.335-1.721 0.503-2.76 0.503-1.526 0-2.754-0.32-3.685-0.958-0.931-0.643-1.486-1.539-1.664-2.686l2.865-0.277c0.13 0.562 0.406 0.987 0.827 1.274 0.423 0.286 0.971 0.43 1.648 0.43 0.698 0 1.258-0.143 1.68-0.43 0.427-0.287 0.641-0.641 0.641-1.063 0-0.358-0.137-0.653-0.414-0.886-0.271-0.232-0.693-0.411-1.266-0.536l-2.127-0.446c-1.195-0.249-2.080-0.669-2.654-1.258-0.574-0.594-0.857-1.347-0.853-2.257-0.005-0.768 0.203-1.433 0.625-1.997 0.427-0.568 1.021-1.006 1.778-1.314 0.762-0.314 1.642-0.471 2.638-0.471 1.461 0 2.61 0.311 3.449 0.934 0.845 0.622 1.367 1.463 1.567 2.523z"></path>
</symbol>
<symbol id="icon-question" viewBox="0 0 19 32">
<path d="M4.706 10.001c0-2.208 1.688-4 3.765-4h1.882c2.076 0 3.765 1.792 3.765 3.998v0.226c0 1.363-0.653 2.632-1.73 3.362l-2.483 1.694c-0.735 0.511-1.325 1.18-1.729 1.961l-0.014 0.030c-0.414 0.808-0.632 1.713-0.632 2.635v0.092c0 1.107 0.841 2.001 1.882 2.001s1.882-0.894 1.882-2.001v-0.087c0-0.514 0.247-0.988 0.648-1.263l2.481-1.694c2.153-1.476 3.46-4.006 3.46-6.731v-0.226c0-4.418-3.369-8-7.529-8h-1.882c-4.16 0-7.529 3.582-7.529 8 0 1.107 0.841 2.001 1.882 2.001s1.882-0.894 1.882-2.001zM9.412 30.001c0.625 0 1.224-0.264 1.664-0.734 0.44-0.469 0.689-1.103 0.689-1.768 0-0.663-0.248-1.299-0.689-1.768-0.416-0.448-1.007-0.729-1.663-0.732h-0.001c-0.625 0-1.224 0.264-1.664 0.734-0.427 0.459-0.689 1.077-0.689 1.755 0 0.004 0 0.007 0 0.011v-0.001c0 0.664 0.248 1.299 0.689 1.769 0.442 0.469 1.039 0.732 1.664 0.732z"></path>
</symbol>
<symbol id="icon-star" viewBox="0 0 32 32">
<path stroke-linejoin="miter" stroke-linecap="butt" stroke-miterlimit="4" stroke-width="2.4" d="M19.6 9.394c0.318 0.604 0.898 1.024 1.57 1.14l7.6 1.314-5.376 5.534c-0.385 0.396-0.622 0.937-0.622 1.533 0 0.11 0.008 0.219 0.024 0.325l-0.001-0.012 1.1 7.636-6.924-3.404-0.234-0.1c-0.219-0.080-0.472-0.127-0.736-0.127s-0.517 0.046-0.751 0.132l0.015-0.005-0.234 0.1-6.924 3.404 1.1-7.636c0.014-0.094 0.022-0.202 0.022-0.313 0-0.596-0.237-1.138-0.623-1.534l0.001 0-5.378-5.534 7.602-1.312c0.685-0.122 1.252-0.547 1.564-1.128l0.006-0.012 3.6-6.826 3.6 6.822z"></path>
</symbol>
<symbol id="icon-user" viewBox="0 0 32 32">
<path d="M16 5.333c2.946 0 5.333 2.388 5.333 5.333s-2.388 5.333-5.333 5.333v0c-2.946 0-5.333-2.388-5.333-5.333s2.388-5.333 5.333-5.333v0zM16 18.667c5.893 0 10.667 2.387 10.667 5.333v2.667h-21.333v-2.667c0-2.947 4.773-5.333 10.667-5.333z"></path>
</symbol>
<symbol id="icon-users" viewBox="0 0 32 32">
<path d="M19.041 22.528l-0.548 2.044-14.305-3.832 0.548-2.044s1.094-4.087 8.247-2.171c7.154 1.916 6.058 6.003 6.058 6.003zM18.066 11.863c0.080-0.287 0.126-0.617 0.126-0.958 0-2.045-1.658-3.704-3.704-3.704-1.705 0-3.14 1.152-3.572 2.72l-0.006 0.026c-0.080 0.287-0.126 0.617-0.126 0.958 0 2.045 1.658 3.704 3.704 3.704 1.705 0 3.141-1.152 3.571-2.72l0.006-0.026zM20.076 18.426c0.717 0.935 1.149 2.121 1.149 3.408 0 0.441-0.051 0.87-0.147 1.282l0.007-0.038-0.548 2.043 4.087 1.096 0.548-2.044s0.995-3.709-5.097-5.747zM21.58 8.972c-0.284-0.081-0.611-0.127-0.948-0.127-0.425 0-0.833 0.074-1.211 0.21l0.025-0.008c0.214 0.552 0.338 1.192 0.338 1.86 0 1.642-0.748 3.11-1.922 4.080l-0.009 0.007c0.474 0.552 1.106 0.947 1.81 1.132 0.288 0.080 0.618 0.126 0.959 0.126 2.045 0 3.703-1.658 3.703-3.703 0-1.704-1.151-3.139-2.718-3.57l-0.026-0.006z"></path>
</symbol>
</defs>
</svg>
